<!-- <svg width="139" height="43" viewBox="0 0 139 43" fill="none" xmlns="http://www.w3.org/2000/svg"> -->
<!-- <path d="M41.4286 11H58L43.6883 35.1039H27.1169L41.4286 11Z" fill="#1E28FF"/>
<path d="M26.3636 11H38.4156L24.1039 35.1039H12.0519L26.3636 11Z" fill="#5B62F6"/>
<path d="M14.3117 11H23.3506L9.03896 35.1039H0L14.3117 11Z" fill="#8E93FF"/>
<path d="M71.1 35.35C69.56 35.35 68.1717 34.965 66.935 34.195C65.6983 33.425 64.73 32.375 64.03 31.045C63.33 29.715 62.98 28.2217 62.98 26.565C62.98 24.885 63.33 23.38 64.03 22.05C64.73 20.72 65.6983 19.67 66.935 18.9C68.1717 18.13 69.56 17.745 71.1 17.745C72.3133 17.745 73.3983 17.99 74.355 18.48C75.3117 18.97 76.07 19.6583 76.63 20.545C77.2133 21.4083 77.5283 22.3883 77.575 23.485V29.575C77.5283 30.695 77.2133 31.6867 76.63 32.55C76.07 33.4133 75.3117 34.1017 74.355 34.615C73.3983 35.105 72.3133 35.35 71.1 35.35ZM71.94 31.115C73.2233 31.115 74.2617 30.695 75.055 29.855C75.8483 28.9917 76.245 27.8833 76.245 26.53C76.245 25.6433 76.0583 24.8617 75.685 24.185C75.335 23.485 74.8333 22.9483 74.18 22.575C73.55 22.1783 72.8033 21.98 71.94 21.98C71.1 21.98 70.3533 22.1783 69.7 22.575C69.07 22.9483 68.5683 23.485 68.195 24.185C67.845 24.8617 67.67 25.6433 67.67 26.53C67.67 27.44 67.845 28.245 68.195 28.945C68.5683 29.6217 69.07 30.1583 69.7 30.555C70.3533 30.9283 71.1 31.115 71.94 31.115ZM76 35V30.45L76.735 26.32L76 22.26V18.095H80.55V35H76ZM91.8162 35.35C90.3228 35.35 88.9928 35.035 87.8262 34.405C86.6828 33.775 85.7845 32.9 85.1312 31.78C84.4778 30.66 84.1512 29.365 84.1512 27.895V18.095H88.7712V27.79C88.7712 28.49 88.8878 29.0967 89.1212 29.61C89.3545 30.1 89.7045 30.4733 90.1712 30.73C90.6378 30.9867 91.1862 31.115 91.8162 31.115C92.7728 31.115 93.5195 30.8233 94.0562 30.24C94.5928 29.6567 94.8612 28.84 94.8612 27.79V18.095H99.4462V27.895C99.4462 29.3883 99.1195 30.695 98.4662 31.815C97.8362 32.935 96.9378 33.81 95.7712 34.44C94.6278 35.0467 93.3095 35.35 91.8162 35.35ZM105.582 35V11.06H110.167V35H105.582ZM101.627 22.12V18.095H114.122V22.12H101.627ZM128.076 35V25.305C128.076 24.3017 127.761 23.485 127.131 22.855C126.501 22.225 125.684 21.91 124.681 21.91C124.028 21.91 123.444 22.05 122.931 22.33C122.418 22.61 122.009 23.0067 121.706 23.52C121.426 24.0333 121.286 24.6283 121.286 25.305L119.501 24.395C119.501 23.065 119.781 21.91 120.341 20.93C120.901 19.9267 121.671 19.145 122.651 18.585C123.654 18.025 124.798 17.745 126.081 17.745C127.364 17.745 128.496 18.025 129.476 18.585C130.479 19.145 131.261 19.915 131.821 20.895C132.381 21.875 132.661 23.0067 132.661 24.29V35H128.076ZM116.701 35V9.695H121.286V35H116.701Z" fill="#3F3F3F"/> -->

<svg version="1.1" xmlns="http://www.w3.org/2000/svg" width="640" height="640">
<path d="M0 0 C7.67757235 6.63608733 12.70597408 14.31417209 17.625 23.125 C18.61049816 24.86168207 19.59601075 26.59835614 20.58239746 28.33453369 C21.59806426 30.124792 22.60984023 31.9172067 23.62109375 33.70996094 C26.74888813 39.2463991 29.94062463 44.74598632 33.125 50.25 C34.37529156 52.41649843 35.62529084 54.58316557 36.875 56.75 C37.803125 58.35875 37.803125 58.35875 38.75 60 C40.625 63.25 42.5 66.5 44.375 69.75 C44.99487793 70.82443359 45.61475586 71.89886719 46.25341797 73.00585938 C47.49210002 75.15295136 48.7307079 77.30008614 49.96923828 79.44726562 C52.9103335 84.54588809 55.85221413 89.64405296 58.79669189 94.74072266 C60.19458601 97.16047665 61.59206089 99.58047263 62.98950195 102.00048828 C63.98152324 103.71801052 64.97415429 105.43518052 65.96679688 107.15234375 C66.56298828 108.18488281 67.15917969 109.21742188 67.7734375 110.28125 C68.56500244 111.65120117 68.56500244 111.65120117 69.37255859 113.04882812 C70.15836511 114.42988691 70.91439248 115.82878495 71.625 117.25 C72.285 117.25 72.945 117.25 73.625 117.25 C74.46417969 115.71859375 74.46417969 115.71859375 75.3203125 114.15625 C80.77253535 104.25197797 86.38756796 94.45288134 92.1003418 84.69677734 C96.44810219 77.27161143 100.7660597 69.82997727 105.0625 62.375 C105.98929565 60.76757935 105.98929565 60.76757935 106.93481445 59.12768555 C110.15626821 53.53873289 113.37409158 47.94770363 116.58984375 42.35546875 C119.71779187 36.91724546 122.85728186 31.48582402 126.00341797 26.05810547 C127.4419138 23.56705171 128.86575113 21.06836193 130.28515625 18.56640625 C137.2647145 6.38810031 144.71450212 -1.95624296 158.5625 -6.0625 C169.04996906 -8.22291863 179.54246686 -6.67281718 188.9453125 -1.46484375 C198.30730851 5.12526717 204.60429109 13.56641305 207.203125 24.734375 C209.63367004 39.22762504 204.11345579 51.38298696 196.75 63.5625 C195.74022046 65.27237861 194.73045044 66.98226298 193.72138977 68.69256592 C192.69402097 70.42917396 191.66065423 72.16207319 190.62548828 73.89404297 C187.61120818 78.95070569 184.65024323 84.03803382 181.6875 89.125 C181.1198291 90.09606689 180.5521582 91.06713379 179.96728516 92.06762695 C175.12836871 100.35256156 170.36823599 108.68147266 165.61785889 117.01730347 C157.74335364 130.83182567 149.81270691 144.61830942 141.625 158.25 C142.28484548 158.25146656 142.94469095 158.25293312 143.62453175 158.25444412 C159.71808156 158.29157859 175.81138065 158.35068075 191.90475178 158.43390274 C199.68756241 158.47362552 207.47027291 158.50605219 215.25317383 158.52099609 C222.04081181 158.53404785 228.82822887 158.5611017 235.61574239 158.60461307 C239.20605962 158.62714928 242.79610517 158.64291544 246.3864994 158.64188385 C250.40551788 158.64099251 254.42374142 158.67137716 258.44262695 158.70410156 C260.20669891 158.69655602 260.20669891 158.69655602 262.00640869 158.68885803 C275.36277456 158.85642438 285.41054439 163.43075806 294.7265625 172.9609375 C303.04439456 182.99025764 303.71733549 194.7604914 302.625 207.25 C301.757399 210.92718971 300.50016824 213.98147757 298.625 217.25 C298.0475 218.28125 297.47 219.3125 296.875 220.375 C290.07649001 229.06198499 282.66214206 234.95784251 271.625 237.25 C269.82151259 237.3491421 268.01484837 237.39601454 266.2086792 237.40821838 C264.55967117 237.42290161 264.55967117 237.42290161 262.87734985 237.43788147 C261.67613495 237.44363693 260.47492004 237.4493924 259.23730469 237.45532227 C257.96875641 237.46522186 256.70020813 237.47512146 255.39321899 237.48532104 C251.91838013 237.51232859 248.44352775 237.53336057 244.96864223 237.55332303 C241.33577963 237.57520822 237.70295851 237.60258451 234.07012939 237.62937927 C227.19250447 237.67927192 220.31485648 237.72422345 213.43718648 237.76740164 C205.60650193 237.81680332 197.77585901 237.87171057 189.94521475 237.92708123 C173.83851489 238.04084865 157.73177685 238.14769908 141.625 238.25 C142.24767761 239.32930786 142.24767761 239.32930786 142.88293457 240.43041992 C153.71362305 259.20361328 164.54431152 277.97680664 175.375 296.75 C175.99463623 297.8239502 176.61427246 298.89790039 177.25268555 300.00439453 C178.49403475 302.15623914 179.73508629 304.30825548 180.97583008 306.46044922 C183.88480003 311.50552062 186.79660523 316.54888421 189.71932983 321.58599854 C190.7524294 323.36680001 191.78456171 325.14815858 192.81640625 326.9296875 C194.11006088 329.16257083 195.40552164 331.3944091 196.703125 333.625 C204.1093443 346.41904037 210.08364545 357.4037992 206.9375 372.5625 C203.83560071 383.72933745 198.02487193 391.45618231 188.625 398.25 C178.13864072 403.66483135 167.3929071 404.80920991 156 401.6875 C141.85348591 396.92165184 134.68602234 385.89665282 127.6875 373.4375 C126.69522306 371.69412455 125.70293448 369.95075558 124.70993042 368.20779419 C123.6860303 366.40852174 122.66531199 364.60747255 121.64501953 362.80615234 C118.50452365 357.26854116 115.3118389 351.76102119 112.125 346.25 C110.87476015 344.08347173 109.62476078 341.91680466 108.375 339.75 C107.75625 338.6775 107.1375 337.605 106.5 336.5 C104.625 333.25 102.75 330 100.875 326.75 C100.25512207 325.67556641 99.63524414 324.60113281 98.99658203 323.49414062 C97.75789998 321.34704864 96.5192921 319.19991386 95.28076172 317.05273438 C92.3396665 311.95411191 89.39778587 306.85594704 86.45330811 301.75927734 C85.05541399 299.33952335 83.65793911 296.91952737 82.26049805 294.49951172 C81.26847676 292.78198948 80.27584571 291.06481948 79.28320312 289.34765625 C78.38891602 287.79884766 78.38891602 287.79884766 77.4765625 286.21875 C76.94885254 285.30544922 76.42114258 284.39214844 75.87744141 283.45117188 C75.09163489 282.07011309 74.33560752 280.67121505 73.625 279.25 C72.965 279.25 72.305 279.25 71.625 279.25 C70.78582031 280.78140625 70.78582031 280.78140625 69.9296875 282.34375 C64.47746465 292.24802203 58.86243204 302.04711866 53.1496582 311.80322266 C48.80189781 319.22838857 44.4839403 326.67002273 40.1875 334.125 C39.56963623 335.19661377 38.95177246 336.26822754 38.31518555 337.37231445 C35.09373179 342.96126711 31.87590842 348.55229637 28.66015625 354.14453125 C25.53220813 359.58275454 22.39271814 365.01417598 19.24658203 370.44189453 C17.8080862 372.93294829 16.38424887 375.43163807 14.96484375 377.93359375 C7.9852855 390.11189969 0.53549788 398.45624296 -13.3125 402.5625 C-23.79996906 404.72291863 -34.29246686 403.17281718 -43.6953125 397.96484375 C-53.05730851 391.37473283 -59.35429109 382.93358695 -61.953125 371.765625 C-64.29013465 357.830123 -59.34092854 345.8808797 -52.125 334.1875 C-50.86825526 332.09336919 -49.61311227 329.99827649 -48.359375 327.90234375 C-47.70646484 326.81808105 -47.05355469 325.73381836 -46.38085938 324.61669922 C-43.30902116 319.46082665 -40.34562251 314.24446046 -37.38314819 309.02536011 C-31.53080483 298.71931878 -25.60391109 288.4582988 -19.61791992 278.22924805 C-14.46037358 269.41212734 -9.35459604 260.56571537 -4.25952148 251.71240234 C-3.36728882 250.16286865 -3.36728882 250.16286865 -2.45703125 248.58203125 C-1.93343018 247.67171143 -1.4098291 246.7613916 -0.87036133 245.82348633 C0.60492815 243.28454324 2.11182633 240.76649519 3.625 238.25 C2.96515452 238.24853344 2.30530905 238.24706688 1.62546825 238.24555588 C-14.46808156 238.20842141 -30.56138065 238.14931925 -46.65475178 238.06609726 C-54.43756241 238.02637448 -62.22027291 237.99394781 -70.00317383 237.97900391 C-76.79081181 237.96595215 -83.57822887 237.9388983 -90.36574239 237.89538693 C-93.95605962 237.87285072 -97.54610517 237.85708456 -101.1364994 237.85811615 C-105.15551788 237.85900749 -109.17374142 237.82862284 -113.19262695 237.79589844 C-114.95669891 237.80344398 -114.95669891 237.80344398 -116.75640869 237.81114197 C-130.11277456 237.64357562 -140.16054439 233.06924194 -149.4765625 223.5390625 C-157.79439456 213.50974236 -158.46733549 201.7395086 -157.375 189.25 C-156.507399 185.57281029 -155.25016824 182.51852243 -153.375 179.25 C-152.7975 178.21875 -152.22 177.1875 -151.625 176.125 C-144.82649001 167.43801501 -137.41214206 161.54215749 -126.375 159.25 C-124.57151259 159.1508579 -122.76484837 159.10398546 -120.9586792 159.09178162 C-119.30967117 159.07709839 -119.30967117 159.07709839 -117.62734985 159.06211853 C-116.42613495 159.05636307 -115.22492004 159.0506076 -113.98730469 159.04467773 C-112.71875641 159.03477814 -111.45020813 159.02487854 -110.14321899 159.01467896 C-106.66838013 158.98767141 -103.19352775 158.96663943 -99.71864223 158.94667697 C-96.08577963 158.92479178 -92.45295851 158.89741549 -88.82012939 158.87062073 C-81.94250447 158.82072808 -75.06485648 158.77577655 -68.18718648 158.73259836 C-60.35650193 158.68319668 -52.52585901 158.62828943 -44.69521475 158.57291877 C-28.58851489 158.45915135 -12.48177685 158.35230092 3.625 158.25 C3.20988159 157.53046143 2.79476318 156.81092285 2.36706543 156.06958008 C-8.46362305 137.29638672 -19.29431152 118.52319336 -30.125 99.75 C-30.74463623 98.6760498 -31.36427246 97.60209961 -32.00268555 96.49560547 C-33.24403475 94.34376086 -34.48508629 92.19174452 -35.72583008 90.03955078 C-38.63480003 84.99447938 -41.54660523 79.95111579 -44.46932983 74.91400146 C-45.5024294 73.13319999 -46.53456171 71.35184142 -47.56640625 69.5703125 C-48.86006088 67.33742917 -50.15552164 65.1055909 -51.453125 62.875 C-58.8593443 50.08095963 -64.83364545 39.0962008 -61.6875 23.9375 C-58.58560071 12.77066255 -52.77487193 5.04381769 -43.375 -1.75 C-29.67352754 -8.82501628 -12.94812522 -9.16637105 0 0 Z " fill="#EA4334" transform="translate(247.375,121.75)"/>
<path d="M0 0 C9.36199601 6.59011092 15.65897859 15.0312568 18.2578125 26.19921875 C20.68835754 40.69246879 15.16814329 52.84783071 7.8046875 65.02734375 C6.79490796 66.73722236 5.78513794 68.44710673 4.77607727 70.15740967 C3.74870847 71.89401771 2.71534173 73.62691694 1.68017578 75.35888672 C-1.33410432 80.41554944 -4.29506927 85.50287757 -7.2578125 90.58984375 C-7.8254834 91.56091064 -8.3931543 92.53197754 -8.97802734 93.5324707 C-13.81694379 101.81740531 -18.57707651 110.14631641 -23.32745361 118.48214722 C-31.20195886 132.29666942 -39.13260559 146.08315317 -47.3203125 159.71484375 C-46.66046702 159.71631031 -46.00062155 159.71777687 -45.32078075 159.71928787 C-29.22723094 159.75642234 -13.13393185 159.8155245 2.95943928 159.89874649 C10.74224991 159.93846927 18.52496041 159.97089594 26.30786133 159.98583984 C33.09549931 159.9988916 39.88291637 160.02594545 46.67042989 160.06945682 C50.26074712 160.09199303 53.85079267 160.10775919 57.4411869 160.1067276 C61.46020538 160.10583626 65.47842892 160.13622091 69.49731445 160.16894531 C71.26138641 160.16139977 71.26138641 160.16139977 73.06109619 160.15370178 C86.41746206 160.32126813 96.46523189 164.89560181 105.78125 174.42578125 C114.09908206 184.45510139 114.77202299 196.22533515 113.6796875 208.71484375 C112.8120865 212.39203346 111.55485574 215.44632132 109.6796875 218.71484375 C109.1021875 219.74609375 108.5246875 220.77734375 107.9296875 221.83984375 C101.11523565 230.5471989 93.72319634 236.38100855 82.6796875 238.71484375 C81.13279822 238.80207671 79.5826224 238.83862103 78.0332756 238.83789158 C76.63145448 238.84087815 76.63145448 238.84087815 75.20131373 238.84392506 C73.66630241 238.8395558 73.66630241 238.8395558 72.10028076 238.83509827 C71.01063813 238.83595269 69.92099551 238.83680712 68.79833341 238.83768743 C65.13474479 238.839339 61.47120161 238.83382609 57.80761719 238.82836914 C55.18637086 238.82808717 52.56512445 238.82824519 49.94387817 238.82881165 C44.29413123 238.82933616 38.64439583 238.82619694 32.99465179 238.82057381 C24.82605722 238.81244898 16.65746823 238.80984258 8.48887005 238.80858582 C-4.76393354 238.80639685 -18.01673099 238.79974095 -31.26953125 238.7902832 C-44.1438799 238.78110509 -57.01822687 238.7740262 -69.89257812 238.76977539 C-70.68606805 238.76951267 -71.47955798 238.76924994 -72.29709306 238.76897926 C-76.27777347 238.76767423 -80.25845389 238.76641052 -84.23913431 238.76516736 C-117.26619819 238.75479957 -150.29325452 238.73718545 -183.3203125 238.71484375 C-181.90747527 235.09845091 -180.32585963 231.81134346 -178.37109375 228.453125 C-177.778125 227.43025391 -177.18515625 226.40738281 -176.57421875 225.35351562 C-175.93355469 224.25587891 -175.29289062 223.15824219 -174.6328125 222.02734375 C-173.9579787 220.86544027 -173.28350594 219.70332704 -172.609375 218.54101562 C-171.20924161 216.12760335 -169.80756231 213.71509915 -168.40478516 211.30322266 C-165.19539982 205.78217304 -162.00906187 200.24782774 -158.8203125 194.71484375 C-157.5704207 192.54811466 -156.32042035 190.38144819 -155.0703125 188.21484375 C-154.4515625 187.14234375 -153.8328125 186.06984375 -153.1953125 184.96484375 C-147.5703125 175.21484375 -147.5703125 175.21484375 -145.69384766 171.96264648 C-144.44833563 169.80353175 -143.20321617 167.64419052 -141.95849609 165.48461914 C-138.76806885 159.95045174 -135.57018396 154.42080824 -132.359375 148.8984375 C-124.33656639 135.11717059 -124.33656639 135.11717059 -116.7578125 121.08984375 C-111.60498854 111.15295242 -105.8645757 101.56079079 -100.19384766 91.91357422 C-97.06437123 86.57054579 -93.97346366 81.20539499 -90.8828125 75.83984375 C-90.26140381 74.76178467 -89.63999512 73.68372559 -88.99975586 72.57299805 C-87.10607956 69.28725078 -85.21308563 66.00111136 -83.3203125 62.71484375 C-82.05736594 60.52209264 -80.79434519 58.32938425 -79.53125 56.13671875 C-78.90742432 55.05374512 -78.28359863 53.97077148 -77.64086914 52.85498047 C-75.77302742 49.61622574 -73.90028078 46.38034138 -72.02734375 43.14453125 C-69.52026317 38.80949495 -67.04247222 34.45931777 -64.58203125 30.09765625 C-63.36986463 27.97001051 -62.15762775 25.8424048 -60.9453125 23.71484375 C-60.41091553 22.75433105 -59.87651855 21.79381836 -59.32592773 20.80419922 C-52.77199892 9.36925731 -44.8556578 -0.12484735 -32.0078125 -4.09765625 C-20.87768657 -6.76153783 -10.12684429 -5.60897605 0 0 Z " fill="#1972E7" transform="translate(436.3203125,120.28515625)"/>
<path d="M0 0 C7.67757235 6.63608733 12.70597408 14.31417209 17.625 23.125 C18.61049816 24.86168207 19.59601075 26.59835614 20.58239746 28.33453369 C21.59806426 30.124792 22.60984023 31.9172067 23.62109375 33.70996094 C26.74888813 39.2463991 29.94062463 44.74598632 33.125 50.25 C34.37529156 52.41649843 35.62529084 54.58316557 36.875 56.75 C37.803125 58.35875 37.803125 58.35875 38.75 60 C44.375 69.75 44.375 69.75 46.25317383 73.00561523 C47.49246267 75.15364046 48.73188141 77.30159075 49.97143555 79.44946289 C52.90702567 84.53655549 55.84125672 89.62441847 58.77090454 94.7149353 C60.15828095 97.12543748 61.54639624 99.53551376 62.93457031 101.94555664 C63.91673815 103.65143968 64.89783385 105.35793986 65.87890625 107.06445312 C66.471875 108.09376953 67.06484375 109.12308594 67.67578125 110.18359375 C68.19825439 111.09165771 68.72072754 111.99972168 69.2590332 112.93530273 C70.32477966 114.74126201 71.46180752 116.50521129 72.625 118.25 C72.30147202 122.41132953 70.58834938 125.4488015 68.51953125 129.01953125 C67.87306641 130.14294922 67.22660156 131.26636719 66.56054688 132.42382812 C65.85301679 133.63680754 65.14533047 134.84969585 64.4375 136.0625 C63.70709686 137.32583359 62.97728693 138.58951031 62.24804688 139.85351562 C60.05001559 143.6579887 57.83892293 147.45475871 55.625 151.25 C54.69953369 152.83820557 54.69953369 152.83820557 53.75537109 154.45849609 C51.47889912 158.36311408 49.20064558 162.26667061 46.91723633 166.16723633 C42.43467428 173.83219599 38.02108721 181.53529535 33.625 189.25 C28.45800152 198.31588976 23.25863364 207.36181502 18 216.375 C17.44441406 217.32761719 16.88882813 218.28023437 16.31640625 219.26171875 C14.75778522 221.92768123 13.19759063 224.59224561 11.625 227.25 C11.28314572 228.05123291 10.94129145 228.85246582 10.58907795 229.67797852 C9.18473569 232.61125116 7.84414314 234.86308593 5.625 237.25 C1.43414333 238.72329589 -2.5926787 238.55808123 -6.9987793 238.44873047 C-8.26945755 238.45661591 -9.5401358 238.46450134 -10.84931946 238.47262573 C-14.32604778 238.49254085 -17.79950306 238.45029968 -21.2757566 238.39566565 C-24.92472238 238.34785447 -28.57363142 238.35389423 -32.22285461 238.35305786 C-38.35575403 238.34380637 -44.4874105 238.29658069 -50.61987305 238.22412109 C-57.68638176 238.14084126 -64.75177004 238.10550213 -71.8187415 238.0988816 C-79.36736977 238.09164816 -86.91560085 238.0538336 -94.46406198 238.00464106 C-96.62587604 237.99224965 -98.78765973 237.98493543 -100.94949913 237.97857285 C-105.00155954 237.96443898 -109.05250603 237.91551095 -113.10424805 237.86279297 C-114.28957123 237.86146362 -115.47489441 237.86013428 -116.69613647 237.85876465 C-130.07328147 237.6198666 -140.1373335 233.09298642 -149.4765625 223.5390625 C-157.79439456 213.50974236 -158.46733549 201.7395086 -157.375 189.25 C-156.507399 185.57281029 -155.25016824 182.51852243 -153.375 179.25 C-152.7975 178.21875 -152.22 177.1875 -151.625 176.125 C-144.82649001 167.43801501 -137.41214206 161.54215749 -126.375 159.25 C-124.57151259 159.1508579 -122.76484837 159.10398546 -120.9586792 159.09178162 C-119.30967117 159.07709839 -119.30967117 159.07709839 -117.62734985 159.06211853 C-116.42613495 159.05636307 -115.22492004 159.0506076 -113.98730469 159.04467773 C-112.71875641 159.03477814 -111.45020813 159.02487854 -110.14321899 159.01467896 C-106.66838013 158.98767141 -103.19352775 158.96663943 -99.71864223 158.94667697 C-96.08577963 158.92479178 -92.45295851 158.89741549 -88.82012939 158.87062073 C-81.94250447 158.82072808 -75.06485648 158.77577655 -68.18718648 158.73259836 C-60.35650193 158.68319668 -52.52585901 158.62828943 -44.69521475 158.57291877 C-28.58851489 158.45915135 -12.48177685 158.35230092 3.625 158.25 C3.20988159 157.53046143 2.79476318 156.81092285 2.36706543 156.06958008 C-8.46362305 137.29638672 -19.29431152 118.52319336 -30.125 99.75 C-30.74463623 98.6760498 -31.36427246 97.60209961 -32.00268555 96.49560547 C-33.24403475 94.34376086 -34.48508629 92.19174452 -35.72583008 90.03955078 C-38.63480003 84.99447938 -41.54660523 79.95111579 -44.46932983 74.91400146 C-45.5024294 73.13319999 -46.53456171 71.35184142 -47.56640625 69.5703125 C-48.86006088 67.33742917 -50.15552164 65.1055909 -51.453125 62.875 C-58.8593443 50.08095963 -64.83364545 39.0962008 -61.6875 23.9375 C-58.58560071 12.77066255 -52.77487193 5.04381769 -43.375 -1.75 C-29.67352754 -8.82501628 -12.94812522 -9.16637105 0 0 Z " fill="#34A753" transform="translate(247.375,121.75)"/>
<path d="M0 0 C7.67757235 6.63608733 12.70597408 14.31417209 17.625 23.125 C18.61049816 24.86168207 19.59601075 26.59835614 20.58239746 28.33453369 C21.59806426 30.124792 22.60984023 31.9172067 23.62109375 33.70996094 C26.74888813 39.2463991 29.94062463 44.74598632 33.125 50.25 C34.37529156 52.41649843 35.62529084 54.58316557 36.875 56.75 C37.49375 57.8225 38.1125 58.895 38.75 60 C44.375 69.75 44.375 69.75 46.25317383 73.00561523 C47.49246267 75.15364046 48.73188141 77.30159075 49.97143555 79.44946289 C52.90702567 84.53655549 55.84125672 89.62441847 58.77090454 94.7149353 C60.15828095 97.12543748 61.54639624 99.53551376 62.93457031 101.94555664 C63.91673815 103.65143968 64.89783385 105.35793986 65.87890625 107.06445312 C66.471875 108.09376953 67.06484375 109.12308594 67.67578125 110.18359375 C68.19825439 111.09165771 68.72072754 111.99972168 69.2590332 112.93530273 C70.32477966 114.74126201 71.46180752 116.50521129 72.625 118.25 C72.31814184 122.6143599 70.36327891 125.84353588 68.203125 129.58203125 C67.8612616 130.17747238 67.51939819 130.77291351 67.16717529 131.38639832 C66.07630058 133.28227927 64.97566985 135.17229263 63.875 137.0625 C63.15043112 138.32061211 62.42646703 139.57907274 61.703125 140.83789062 C59.69542626 144.31974612 57.67871383 147.79496645 55.625 151.25 C55.29566971 151.96132584 54.96633942 152.67265167 54.62702942 153.40553284 C51.90151145 158.79065154 51.90151145 158.79065154 48.46279907 160.02806091 C45.73205957 160.39538814 43.11093034 160.4897482 40.35546875 160.48828125 C39.36049881 160.50779343 38.36552887 160.5273056 37.34040833 160.54740906 C35.23841733 160.57471887 33.13606155 160.58097736 31.03393555 160.56762695 C27.8281919 160.56252497 24.6389845 160.66903242 21.43554688 160.78320312 C6.6951453 161.00928246 6.6951453 161.00928246 1.66113281 156.73120117 C-0.45537318 153.32673389 -1.91406121 149.97927108 -3.375 146.25 C-4.60381839 144.04697738 -5.86712648 141.86284077 -7.1640625 139.69921875 C-8.44457672 137.44637346 -9.72316611 135.19243321 -11 132.9375 C-12.4059032 130.46390363 -13.81397565 127.99154681 -15.22265625 125.51953125 C-15.74867683 124.59611938 -15.74867683 124.59611938 -16.2853241 123.65405273 C-19.63062171 117.78835735 -23.02695953 111.95298458 -26.4375 106.125 C-31.98012759 96.65182917 -37.49020507 87.16054933 -42.9543457 77.6418457 C-45.81601885 72.66038677 -48.69468327 67.69393937 -51.66015625 62.7734375 C-59.20731021 50.20089497 -64.83440431 38.99122396 -61.68359375 23.94921875 C-58.60332259 12.77518069 -52.77243917 5.0420594 -43.375 -1.75 C-29.67352754 -8.82501628 -12.94812522 -9.16637105 0 0 Z " fill="#FABB04" transform="translate(247.375,121.75)"/>
<path d="M0 0 C0.66 0 1.32 0 2 0 C2.55945313 1.0209375 3.11890625 2.041875 3.6953125 3.09375 C9.12177397 12.95101312 14.71307572 22.70076939 20.40283203 32.40820312 C24.98888277 40.24193906 29.50719121 48.11262156 34 56 C39.03656601 64.84011693 44.1116567 73.65598121 49.25 82.4375 C53.82170155 90.25374009 58.3708245 98.08211563 62.875 105.9375 C63.65278809 107.28896118 63.65278809 107.28896118 64.44628906 108.66772461 C65.14963379 109.89761108 65.14963379 109.89761108 65.8671875 111.15234375 C66.48762939 112.2350354 66.48762939 112.2350354 67.12060547 113.33959961 C68 115 68 115 68 116 C23.78 116 -20.44 116 -66 116 C-64.50697948 112.26744871 -63.04854911 109.17037559 -61.05078125 105.73828125 C-60.16132813 104.20397461 -60.16132813 104.20397461 -59.25390625 102.63867188 C-58.61324219 101.54103516 -57.97257812 100.44339844 -57.3125 99.3125 C-56.6376662 98.15059652 -55.96319344 96.98848329 -55.2890625 95.82617188 C-53.88892911 93.4127596 -52.48724981 91.0002554 -51.08447266 88.58837891 C-47.87508732 83.06732929 -44.68874937 77.53298399 -41.5 72 C-40.2501082 69.83327091 -39.00010785 67.66660444 -37.75 65.5 C-37.13125 64.4275 -36.5125 63.355 -35.875 62.25 C-30.25 52.5 -30.25 52.5 -28.37231445 49.24536133 C-27.13124746 47.09416776 -25.89019907 44.94296345 -24.64916992 42.79174805 C-21.73501656 37.74037001 -18.82068182 32.6890969 -15.90567017 27.63821411 C-14.87326522 25.84933082 -13.84092044 24.06041283 -12.80859375 22.27148438 C-11.51314052 20.02662364 -10.2175743 17.7818281 -8.921875 15.53710938 C-5.93692086 10.36428226 -2.95754683 5.18854991 0 0 Z " fill="#195DB6" transform="translate(319,243)"/>
</svg>
